  0
SECTION
  2
HEADER
  9
$ACADVER
  1
AC1009
  9
$INSBASE
 10
0.0
 20
0.0
 30
0.0
  9
$EXTMIN
 10
0.0
 20
0.0
 30
0.0
  9
$EXTMAX
 10
0.0
 20
0.0
 30
0.0
  0
ENDSEC
  0
SECTION
  2
TABLES
  0
TABLE
  2
VPORT
 70
0
  0
ENDTAB
  0
TABLE
  2
LTYPE
 70
5
  0
LTYPE
  2
CONTINUOUS
 70
0
  3
Solid line
 72
65
 73
0
 40
0.0
  0
LTYPE
  2
DASHED
 70
0
  3
Dashed __ __ __ __ __ __ __ __ __ __ __ __ __ _
 72
65
 73
2
 40
0.6
 49
0.5
 49
-0.1
  0
LTYPE
  2
CENTER
 70
0
  3
Center ____ _ ____ _ ____ _ ____ _ ____ _ ____
 72
65
 73
4
 40
2.0
 49
1.25
 49
-0.25
 49
0.25
 49
-0.25
  0
LTYPE
  2
DOT
 70
0
  3
Dot .  .  .  .  .  .  .  .  .  .  .  .  .  .  .  .
 72
65
 73
2
 40
0.2
 49
0.0
 49
-0.2
  0
LTYPE
  2
DASHDOT
 70
0
  3
Dash dot __ . __ . __ . __ . __ . __ . __ . __
 72
65
 73
4
 40
1.4
 49
1.0
 49
-0.2
 49
0.0
 49
-0.2
  0
ENDTAB
  0
TABLE
  2
LAYER
 70
1
  0
LAYER
  2
0
 70
64
 62
7
  6
continuous
  0
ENDTAB
  0
TABLE
  2
STYLE
 70
1
  0
STYLE
  2
STANDARD
 70
0
 40
0
 41
1.0
 50
0.0
 71
0
 42
1
 3
ARIAL.TTF
 4

  0
ENDTAB
  0
TABLE
  2
VIEW
 70
0
  0
ENDTAB
  0
TABLE
  2
DIMSTYLE
 70
1
  0
DIMSTYLE
  2
STANDARD
 70
0
  3

  4

  5

  6

  7

 40
1.0
 41
2.5
 42
0.625
 43
0.38
 44
1.25
 45
0.0
 46
0.0
 47
0.0
 48
0.0
140
2.5
141
0.09
142
0.0
143
25.4
144
1.0
145
0.0
146
1.0
147
0.625
 71
0
 72
0
 73
0
 74
1
 75
0
 76
0
 77
0
 78
1
170
0
171
2
172
0
173
0
174
0
175
0
176
0
177
0
178
0
  0
ENDTAB
  0
ENDSEC
  0
SECTION
  2
BLOCKS
  0
BLOCK
  8
Site plan
  2
RECTANGLE033
 70
0
 10
0.0
 20
0.0
 30
0.0
  3
RECTANGLE033
  0
LINE
  8
Site plan
 62
166
  6
continuous
 10
-8991.01269531
 20
-16812.4140625
 30
0.0
 11
16004.2792969
 21
-16812.4140625
 31
0.0
100
AcDbEntity
 6
CONTINUOUS
  0
LINE
  8
Site plan
 62
166
  6
continuous
 10
16004.2792969
 20
-16812.4140625
 30
0.0
 11
16004.2792969
 21
18840.4785156
 31
0.0
100
AcDbEntity
 6
CONTINUOUS
  0
LINE
  8
Site plan
 62
166
  6
continuous
 10
16004.2792969
 20
18840.4785156
 30
0.0
 11
-8991.01269531
 21
18840.4785156
 31
0.0
100
AcDbEntity
 6
CONTINUOUS
  0
LINE
  8
Site plan
 62
166
  6
continuous
 10
-8991.01269531
 20
18840.4785156
 30
0.0
 11
-8991.01269531
 21
-16812.4140625
 31
0.0
100
AcDbEntity
 6
CONTINUOUS
  0
ENDBLK
  0
BLOCK
  8
Site plan
  2
DWIRE
 70
0
 10
0.0
 20
0.0
 30
0.0
  3
DWIRE
  0
LINE
  8
Site plan
 62
166
  6
continuous
 10
-3879.9
 20
0.0
 30
0.0
 11
-3879.9
 21
9994.33595345
 31
0.0
100
AcDbEntity
 6
CONTINUOUS
  0
LINE
  8
Site plan
 62
166
  6
continuous
 10
-3879.9
 20
9994.33595345
 30
0.0
 11
-3100.0
 21
9994.33595345
 31
0.0
100
AcDbEntity
 6
CONTINUOUS
  0
LINE
  8
Site plan
 62
166
  6
continuous
 10
-3100.0
 20
9994.33595345
 30
0.0
 11
-3100.0
 21
12293.0332227
 31
0.0
100
AcDbEntity
 6
CONTINUOUS
  0
LINE
  8
Site plan
 62
166
  6
continuous
 10
-3100.0
 20
12293.0332227
 30
0.0
 11
-2200.0
 21
13192.5234586
 31
0.0
100
AcDbEntity
 6
CONTINUOUS
  0
LINE
  8
Site plan
 62
166
  6
continuous
 10
-2200.0
 20
13192.5234586
 30
0.0
 11
-600.0
 21
13192.5234586
 31
0.0
100
AcDbEntity
 6
CONTINUOUS
  0
LINE
  8
Site plan
 62
166
  6
continuous
 10
-600.0
 20
13192.5234586
 30
0.0
 11
300.0
 21
12293.0332227
 31
0.0
100
AcDbEntity
 6
CONTINUOUS
  0
LINE
  8
Site plan
 62
166
  6
continuous
 10
300.0
 20
12293.0332227
 30
0.0
 11
300.0
 21
11593.429706
 31
0.0
100
AcDbEntity
 6
CONTINUOUS
  0
LINE
  8
Site plan
 62
166
  6
continuous
 10
300.0
 20
11593.429706
 30
0.0
 11
2632.9465332
 21
11593.429706
 31
0.0
100
AcDbEntity
 6
CONTINUOUS
  0
LINE
  8
Site plan
 62
166
  6
continuous
 10
2632.9465332
 20
11593.429706
 30
0.0
 11
2632.9465332
 21
12259.6575481
 31
0.0
100
AcDbEntity
 6
CONTINUOUS
  0
LINE
  8
Site plan
 62
166
  6
continuous
 10
2632.9465332
 20
12259.6575481
 30
0.0
 11
4857.38818359
 21
12259.6575481
 31
0.0
100
AcDbEntity
 6
CONTINUOUS
  0
LINE
  8
Site plan
 62
166
  6
continuous
 10
4857.38818359
 20
12259.6575481
 30
0.0
 11
4857.38818359
 21
12529.2364093
 31
0.0
100
AcDbEntity
 6
CONTINUOUS
  0
LINE
  8
Site plan
 62
166
  6
continuous
 10
4857.38818359
 20
12529.2364093
 30
0.0
 11
11334.3144531
 21
12529.2364093
 31
0.0
100
AcDbEntity
 6
CONTINUOUS
  0
LINE
  8
Site plan
 62
166
  6
continuous
 10
11334.3144531
 20
12529.2364093
 30
0.0
 11
11334.3144531
 21
99.9433595345
 31
0.0
100
AcDbEntity
 6
CONTINUOUS
  0
LINE
  8
Site plan
 62
166
  6
continuous
 10
11334.3144531
 20
99.9433595345
 30
0.0
 11
11700.0
 21
99.9433595345
 31
0.0
100
AcDbEntity
 6
CONTINUOUS
  0
LINE
  8
Site plan
 62
166
  6
continuous
 10
11700.0
 20
99.9433595345
 30
0.0
 11
11700.0
 21
-1998.86719069
 31
0.0
100
AcDbEntity
 6
CONTINUOUS
  0
LINE
  8
Site plan
 62
166
  6
continuous
 10
11700.0
 20
-1998.86719069
 30
0.0
 11
11334.3144531
 21
-1998.86719069
 31
0.0
100
AcDbEntity
 6
CONTINUOUS
  0
LINE
  8
Site plan
 62
166
  6
continuous
 10
11334.3144531
 20
-1998.86719069
 30
0.0
 11
11334.3144531
 21
-6328.43387929
 31
0.0
100
AcDbEntity
 6
CONTINUOUS
  0
LINE
  8
Site plan
 62
166
  6
continuous
 10
11334.3144531
 20
-6328.43387929
 30
0.0
 11
6031.70654297
 21
-6328.43387929
 31
0.0
100
AcDbEntity
 6
CONTINUOUS
  0
LINE
  8
Site plan
 62
166
  6
continuous
 10
6031.70654297
 20
-6328.43387929
 30
0.0
 11
6031.70654297
 21
-1744.27239197
 31
0.0
100
AcDbEntity
 6
CONTINUOUS
  0
LINE
  8
Site plan
 62
166
  6
continuous
 10
6031.70654297
 20
-1744.27239197
 30
0.0
 11
0.0
 21
-1744.27239197
 31
0.0
100
AcDbEntity
 6
CONTINUOUS
  0
LINE
  8
Site plan
 62
166
  6
continuous
 10
0.0
 20
-1744.27239197
 30
0.0
 11
0.0
 21
-2.27373675443e-13
 31
0.0
100
AcDbEntity
 6
CONTINUOUS
  0
LINE
  8
Site plan
 62
166
  6
continuous
 10
0.0
 20
-2.3641e-13
 30
0.0
 11
-3879.9
 21
-3.616e-15
 31
0.0
100
AcDbEntity
 6
CONTINUOUS
  0
ENDBLK
  0
BLOCK
  8
Site plan
  2
RECTANGLE
 70
0
 10
0.0
 20
0.0
 30
0.0
  3
RECTANGLE
  0
LINE
  8
Site plan
 62
166
  6
continuous
 10
-3879.9
 20
-2914.64997559
 30
0.0
 11
0.0
 21
-2914.64997559
 31
0.0
100
AcDbEntity
 6
CONTINUOUS
  0
LINE
  8
Site plan
 62
166
  6
continuous
 10
0.0
 20
-2914.64997559
 30
0.0
 11
0.0
 21
0.0
 31
0.0
100
AcDbEntity
 6
CONTINUOUS
  0
LINE
  8
Site plan
 62
166
  6
continuous
 10
0.0
 20
0.0
 30
0.0
 11
-3879.9
 21
0.0
 31
0.0
100
AcDbEntity
 6
CONTINUOUS
  0
LINE
  8
Site plan
 62
166
  6
continuous
 10
-3879.9
 20
0.0
 30
0.0
 11
-3879.9
 21
-2914.64997559
 31
0.0
100
AcDbEntity
 6
CONTINUOUS
  0
ENDBLK
  0
BLOCK
  8
Site plan
  2
DWIRE027
 70
0
 10
0.0
 20
0.0
 30
0.0
  3
DWIRE027
  0
LINE
  8
Site plan
 62
166
  6
continuous
 10
300.0
 20
12293.0332227
 30
0.0
 11
300.0
 21
14074.775
 31
0.0
100
AcDbEntity
 6
CONTINUOUS
  0
LINE
  8
Site plan
 62
166
  6
continuous
 10
300.0
 20
14074.775
 30
0.0
 11
4857.38818359
 21
14074.775
 31
0.0
100
AcDbEntity
 6
CONTINUOUS
  0
LINE
  8
Site plan
 62
166
  6
continuous
 10
4857.38818359
 20
14074.775
 30
0.0
 11
4857.38818359
 21
12529.2364093
 31
0.0
100
AcDbEntity
 6
CONTINUOUS
  0
ENDBLK
  0
BLOCK
  8
Site plan
  2
DWIRE028
 70
0
 10
0.0
 20
0.0
 30
0.0
  3
DWIRE028
  0
LINE
  8
Site plan
 62
166
  6
continuous
 10
11261.4873047
 20
12529.2363281
 30
0.0
 11
11261.4873047
 21
18840.4785156
 31
0.0
100
AcDbEntity
 6
CONTINUOUS
  0
LINE
  8
Site plan
 62
166
  6
continuous
 10
11261.4873047
 20
18840.4785156
 30
0.0
 11
5056.31933594
 21
18840.4785156
 31
0.0
100
AcDbEntity
 6
CONTINUOUS
  0
LINE
  8
Site plan
 62
166
  6
continuous
 10
5056.31933594
 20
18840.4785156
 30
0.0
 11
5056.31933594
 21
12529.2364093
 31
0.0
100
AcDbEntity
 6
CONTINUOUS
  0
ENDBLK
  0
BLOCK
  8
Site plan
  2
RECTANGLE032
 70
0
 10
0.0
 20
0.0
 30
0.0
  3
RECTANGLE032
  0
LINE
  8
Site plan
 62
166
  6
continuous
 10
1784.21228027
 20
-3989.84619141
 30
0.0
 11
6031.70654297
 21
-3989.84619141
 31
0.0
100
AcDbEntity
 6
CONTINUOUS
  0
LINE
  8
Site plan
 62
166
  6
continuous
 10
6031.70654297
 20
-3989.84619141
 30
0.0
 11
6031.70654297
 21
-1744.27239197
 31
0.0
100
AcDbEntity
 6
CONTINUOUS
  0
LINE
  8
Site plan
 62
166
  6
continuous
 10
6031.70654297
 20
-1744.27239197
 30
0.0
 11
1784.21228027
 21
-1744.27239197
 31
0.0
100
AcDbEntity
 6
CONTINUOUS
  0
LINE
  8
Site plan
 62
166
  6
continuous
 10
1784.21228027
 20
-1744.27239197
 30
0.0
 11
1784.21228027
 21
-3989.84619141
 31
0.0
100
AcDbEntity
 6
CONTINUOUS
  0
ENDBLK
  0
BLOCK
  8
Site plan
  2
LINE059
 70
0
 10
0.0
 20
0.0
 30
0.0
  3
LINE059
  0
LINE
  8
Site plan
 62
166
  6
continuous
 10
-4901.62646484
 20
-12142.0517578
 30
0.0
 11
16092.4365234
 21
-12142.0517578
 31
0.0
100
AcDbEntity
 6
CONTINUOUS
  0
ENDBLK
  0
BLOCK
  8
Site plan
  2
LINE060
 70
0
 10
0.0
 20
0.0
 30
0.0
  3
LINE060
  0
LINE
  8
Site plan
 62
166
  6
continuous
 10
-6889.75
 20
18840.4785156
 30
0.0
 11
-6889.75
 21
-16812.4140625
 31
0.0
100
AcDbEntity
 6
CONTINUOUS
  0
ENDBLK
  0
BLOCK
  8
Site plan
  2
LINE061
 70
0
 10
0.0
 20
0.0
 30
0.0
  3
LINE061
  0
LINE
  8
Site plan
 62
166
  6
continuous
 10
-4901.62646484
 20
18840.4785156
 30
0.0
 11
-4901.62646484
 21
-16812.4140625
 31
0.0
100
AcDbEntity
 6
CONTINUOUS
  0
ENDBLK
  0
ENDSEC
  0
SECTION
  2
ENTITIES
  0
INSERT
  2
RECTANGLE033
  8
Site plan
 62
166
 10
0.0
 20
0.0
 30
0.0
  0
INSERT
  2
DWIRE
  8
Site plan
 62
166
 10
0.0
 20
0.0
 30
0.0
  0
INSERT
  2
RECTANGLE
  8
Site plan
 62
166
 10
0.0
 20
0.0
 30
0.0
  0
INSERT
  2
DWIRE027
  8
Site plan
 62
166
 10
0.0
 20
0.0
 30
0.0
  0
INSERT
  2
DWIRE028
  8
Site plan
 62
166
 10
0.0
 20
0.0
 30
0.0
  0
INSERT
  2
RECTANGLE032
  8
Site plan
 62
166
 10
0.0
 20
0.0
 30
0.0
  0
INSERT
  2
LINE059
  8
Site plan
 62
166
 10
0.0
 20
0.0
 30
0.0
  0
INSERT
  2
LINE060
  8
Site plan
 62
166
 10
0.0
 20
0.0
 30
0.0
  0
INSERT
  2
LINE061
  8
Site plan
 62
166
 10
0.0
 20
0.0
 30
0.0
  0
ENDSEC
  0
EOF
